<svg xmlns="http://www.w3.org/2000/svg" viewBox="0 0 64 64">
  <defs>
    <linearGradient id="bg" x1="0%" y1="0%" x2="100%" y2="100%">
      <stop offset="0%" stop-color="#1f6feb" />
      <stop offset="100%" stop-color="#14b8a6" />
    </linearGradient>
  </defs>
  <rect width="64" height="64" rx="16" fill="url(#bg)" />
  <path
    d="M19 32c0-7.18 5.82-13 13-13 4.31 0 8.13 2.1 10.5 5.33l-4.1 3.01A7.97 7.97 0 0 0 32 24c-4.42 0-8 3.58-8 8s3.58 8 8 8a7.97 7.97 0 0 0 6.4-3.34l4.1 3.01A12.93 12.93 0 0 1 32 45c-7.18 0-13-5.82-13-13Z"
    fill="#fff"
  />
  <circle cx="45" cy="20" r="5" fill="#fff" fill-opacity=".92" />
</svg>
